<?xml version="1.0" encoding="UTF-8"?>
<!DOCTYPE svg PUBLIC "-//W3C//DTD SVG 1.1//EN" "http://www.w3.org/Graphics/SVG/1.1/DTD/svg11.dtd">
<svg xmlns="http://www.w3.org/2000/svg" version="1.1" width="259px" height="194px" style="shape-rendering:geometricPrecision; text-rendering:geometricPrecision; image-rendering:optimizeQuality; fill-rule:evenodd; clip-rule:evenodd" xmlns:xlink="http://www.w3.org/1999/xlink">
<g><path style="opacity:1" fill="#fefefe" d="M -0.5,-0.5 C 85.8333,-0.5 172.167,-0.5 258.5,-0.5C 258.5,64.1667 258.5,128.833 258.5,193.5C 172.167,193.5 85.8333,193.5 -0.5,193.5C -0.5,128.833 -0.5,64.1667 -0.5,-0.5 Z"/></g>
<g><path style="opacity:1" fill="#6e6f72" d="M 127.5,42.5 C 134.826,42.493 138.493,46.1597 138.5,53.5C 138.658,60.3179 135.658,64.9846 129.5,67.5C 124.012,64.5428 121.012,59.8761 120.5,53.5C 120.822,48.5191 123.155,44.8524 127.5,42.5 Z"/></g>
<g><path style="opacity:1" fill="#6f7072" d="M 184.5,69.5 C 189.632,69.0607 192.299,71.394 192.5,76.5C 192.668,81.0563 190.668,84.0563 186.5,85.5C 182.65,83.6598 180.65,80.4932 180.5,76C 180.722,73.0379 182.056,70.8712 184.5,69.5 Z"/></g>
<g><path style="opacity:1" fill="#6d6e71" d="M 70.5,69.5 C 77.8085,69.6663 80.3085,73.3329 78,80.5C 75.2041,86.6583 71.8708,86.9917 68,81.5C 66.7734,76.938 67.6067,72.938 70.5,69.5 Z"/></g>
<g><path style="opacity:1" fill="#6e6f72" d="M 130.5,74.5 C 130.183,77.5719 130.516,80.5719 131.5,83.5C 132.107,83.3764 132.44,83.0431 132.5,82.5C 134.064,78.3263 134.731,73.993 134.5,69.5C 139.311,69.8271 143.811,71.1605 148,73.5C 151.861,79.8878 155.194,86.5545 158,93.5C 158.667,96.5 158.667,99.5 158,102.5C 155.864,109.344 154.698,116.344 154.5,123.5C 138.167,123.5 121.833,123.5 105.5,123.5C 104.445,117.394 102.945,111.394 101,105.5C 100.19,100.743 100.524,96.0759 102,91.5C 104.394,85.7126 107.06,80.0459 110,74.5C 114.293,71.2346 119.126,69.2346 124.5,68.5C 124.251,73.8365 125.418,78.8365 128,83.5C 127.93,80.008 128.763,77.008 130.5,74.5 Z"/></g>
<g><path style="opacity:1" fill="#6f7073" d="M 158.5,70.5 C 167.787,70.3832 170.62,74.7165 167,83.5C 162.427,88.9896 158.76,88.3229 156,81.5C 154.946,77.3445 155.78,73.6779 158.5,70.5 Z"/></g>
<g><path style="opacity:1" fill="#6d6e71" d="M 94.5,70.5 C 102.819,70.3442 105.652,74.3442 103,82.5C 98.7707,89.3644 95.104,89.0311 92,81.5C 90.8118,77.2586 91.6451,73.5919 94.5,70.5 Z"/></g>
<g><path style="opacity:1" fill="#bebec0" d="M 130.5,74.5 C 131.167,77.1667 131.833,79.8333 132.5,82.5C 132.44,83.0431 132.107,83.3764 131.5,83.5C 130.516,80.5719 130.183,77.5719 130.5,74.5 Z"/></g>
<g><path style="opacity:1" fill="#6e6f72" d="M 76.5,87.5 C 79.0489,87.937 80.3822,89.437 80.5,92C 79.5738,100.469 79.2405,108.969 79.5,117.5C 72.5,117.5 65.5,117.5 58.5,117.5C 58.3336,108.827 58.5002,100.16 59,91.5C 61.8748,90.1962 64.8748,89.1962 68,88.5C 69.982,88.9903 71.6487,89.9903 73,91.5C 74.3756,90.2949 75.5423,88.9616 76.5,87.5 Z"/></g>
<g><path style="opacity:1" fill="#6c6d70" d="M 89.5,88.5 C 93.6697,87.9928 96.6697,89.6595 98.5,93.5C 97.5527,103.078 98.8861,112.411 102.5,121.5C 95.8665,122.497 89.1998,122.83 82.5,122.5C 82.3335,112.828 82.5002,103.161 83,93.5C 84.9263,91.4611 87.093,89.7945 89.5,88.5 Z"/></g>
<g><path style="opacity:1" fill="#6d6e71" d="M 165.5,88.5 C 168.647,88.7366 171.647,89.5699 174.5,91C 175.701,91.9025 176.535,93.0692 177,94.5C 177.5,103.827 177.666,113.161 177.5,122.5C 170.833,122.5 164.167,122.5 157.5,122.5C 159.005,114.813 160.671,107.146 162.5,99.5C 162.221,97.6568 161.887,95.8235 161.5,94C 162.55,91.9707 163.884,90.1374 165.5,88.5 Z"/></g>
<g><path style="opacity:1" fill="#6d6e71" d="M 182.5,87.5 C 184.129,88.6253 185.629,89.9586 187,91.5C 188.062,90.1007 189.395,89.1007 191,88.5C 194.125,89.1962 197.125,90.1962 200,91.5C 201.252,100.12 201.752,108.787 201.5,117.5C 194.5,117.5 187.5,117.5 180.5,117.5C 180.666,110.159 180.5,102.826 180,95.5C 179.654,93.7818 179.154,92.1151 178.5,90.5C 179.901,89.4793 181.235,88.4793 182.5,87.5 Z"/></g>
<g><path style="opacity:1" fill="#f6f6f6" d="M 113.5,102.5 C 112.833,106.833 112.167,111.167 111.5,115.5C 108.354,106.59 108.854,97.9237 113,89.5C 113.499,93.8206 113.666,98.1539 113.5,102.5 Z"/></g>
<g><path style="opacity:1" fill="#eeefef" d="M 146.5,90.5 C 149.333,93.6953 150.667,97.5287 150.5,102C 150.344,107.454 149.177,112.621 147,117.5C 146.5,108.506 146.334,99.5062 146.5,90.5 Z"/></g>
<g><path style="opacity:1" fill="#c0c1c2" d="M 113.5,102.5 C 113.666,107.511 113.499,112.511 113,117.5C 112.283,116.956 111.783,116.289 111.5,115.5C 112.167,111.167 112.833,106.833 113.5,102.5 Z"/></g>
<g><path style="opacity:1" fill="#6a6b6e" d="M 83.5,137.5 C 86.5719,137.183 89.5719,137.516 92.5,138.5C 90.2573,139.474 87.924,139.808 85.5,139.5C 85.5,140.5 85.5,141.5 85.5,142.5C 93.5,143.167 93.5,143.833 85.5,144.5C 85.5,145.5 85.5,146.5 85.5,147.5C 87.924,147.192 90.2573,147.526 92.5,148.5C 89.5719,149.484 86.5719,149.817 83.5,149.5C 83.5,145.5 83.5,141.5 83.5,137.5 Z"/></g>
<g><path style="opacity:1" fill="#717275" d="M 94.5,137.5 C 97.1873,137.336 99.854,137.503 102.5,138C 104.983,140.264 104.983,142.597 102.5,145C 102.95,146.285 103.617,147.452 104.5,148.5C 104,148.833 103.5,149.167 103,149.5C 101.606,148.387 100.439,147.053 99.5,145.5C 98.675,144.614 97.675,144.281 96.5,144.5C 96.7852,146.288 96.4519,147.955 95.5,149.5C 94.5091,145.555 94.1758,141.555 94.5,137.5 Z"/></g>
<g><path style="opacity:1" fill="#6e6f72" d="M 136.5,137.5 C 139.908,136.828 142.575,137.828 144.5,140.5C 144.167,140.833 143.833,141.167 143.5,141.5C 137.057,138.104 135.057,139.938 137.5,147C 139.259,147.798 140.926,147.631 142.5,146.5C 138.89,144.288 139.557,143.288 144.5,143.5C 144.854,149.204 142.187,151.037 136.5,149C 132.581,145.173 132.581,141.339 136.5,137.5 Z"/></g>
<g><path style="opacity:1" fill="#646569" d="M 147.5,137.5 C 148.794,139.048 149.461,141.048 149.5,143.5C 149.167,145.5 148.833,147.5 148.5,149.5C 147.509,145.555 147.176,141.555 147.5,137.5 Z"/></g>
<g><path style="opacity:1" fill="#78797b" d="M 162.5,137.5 C 165.572,137.183 168.572,137.516 171.5,138.5C 170.675,139.386 169.675,139.719 168.5,139.5C 168.5,142.833 168.5,146.167 168.5,149.5C 167.5,149.5 166.5,149.5 165.5,149.5C 165.5,146.167 165.5,142.833 165.5,139.5C 163.821,139.715 162.821,139.048 162.5,137.5 Z"/></g>
<g><path style="opacity:1" fill="#6d6e71" d="M 189.5,137.5 C 190.496,137.414 191.329,137.748 192,138.5C 193.597,141.791 195.097,145.125 196.5,148.5C 195.675,149.386 194.675,149.719 193.5,149.5C 193.5,148.5 193.5,147.5 193.5,146.5C 190.404,145.907 188.071,146.907 186.5,149.5C 186.167,149 185.833,148.5 185.5,148C 186.711,144.419 188.044,140.919 189.5,137.5 Z"/></g>
<g><path style="opacity:1" fill="#6b6c6f" d="M 213.5,137.5 C 222.024,137.345 224.358,141.011 220.5,148.5C 212.527,150.692 209.694,147.692 212,139.5C 212.717,138.956 213.217,138.289 213.5,137.5 Z"/></g>
<g><path style="opacity:1" fill="#7c7d7f" d="M 34.5,137.5 C 35.5,137.5 36.5,137.5 37.5,137.5C 37.5,140.833 37.5,144.167 37.5,147.5C 38.8333,147.5 40.1667,147.5 41.5,147.5C 41.5,144.167 41.5,140.833 41.5,137.5C 42.5,137.5 43.5,137.5 44.5,137.5C 44.665,140.85 44.4983,144.183 44,147.5C 41,150.167 38,150.167 35,147.5C 34.5017,144.183 34.335,140.85 34.5,137.5 Z"/></g>
<g><path style="opacity:1" fill="#68696d" d="M 53.5,144.5 C 51.8333,144.5 50.1667,144.5 48.5,144.5C 48.5,146.167 48.5,147.833 48.5,149.5C 46.5772,145.971 45.9106,141.971 46.5,137.5C 48.8568,137.337 51.1902,137.503 53.5,138C 56.1339,140.293 56.1339,142.46 53.5,144.5 Z"/></g>
<g><path style="opacity:1" fill="#68696d" d="M 64.5,144.5 C 62.8333,144.5 61.1667,144.5 59.5,144.5C 59.5,146.167 59.5,147.833 59.5,149.5C 57.5772,145.971 56.9106,141.971 57.5,137.5C 59.8568,137.337 62.1902,137.503 64.5,138C 67.1339,140.293 67.1339,142.46 64.5,144.5 Z"/></g>
<g><path style="opacity:1" fill="#696a6e" d="M 70.5,137.5 C 70.5,141.167 70.5,144.833 70.5,148.5C 72.7354,148.205 74.7354,148.539 76.5,149.5C 73.8333,149.5 71.1667,149.5 68.5,149.5C 67.9106,145.029 68.5772,141.029 70.5,137.5 Z"/></g>
<g><path style="opacity:1" fill="#616266" d="M 78.5,137.5 C 79.7943,139.048 80.4609,141.048 80.5,143.5C 80.1667,145.5 79.8333,147.5 79.5,149.5C 78.5091,145.555 78.1758,141.555 78.5,137.5 Z"/></g>
<g><path style="opacity:1" fill="#6b6c6f" d="M 123.5,137.5 C 126.572,137.183 129.572,137.516 132.5,138.5C 130.257,139.474 127.924,139.808 125.5,139.5C 125.5,140.5 125.5,141.5 125.5,142.5C 133.5,143.167 133.5,143.833 125.5,144.5C 125.5,145.5 125.5,146.5 125.5,147.5C 127.924,147.192 130.257,147.526 132.5,148.5C 129.572,149.484 126.572,149.817 123.5,149.5C 123.5,145.5 123.5,141.5 123.5,137.5 Z"/></g>
<g><path style="opacity:1" fill="#737477" d="M 153.5,137.5 C 156.38,137.033 158.713,137.866 160.5,140C 160.167,140.5 159.833,141 159.5,141.5C 158.032,139.667 156.365,139.334 154.5,140.5C 155.991,142.012 157.824,143.012 160,143.5C 161.261,149.08 159.094,150.913 153.5,149C 151.74,148.035 151.406,146.868 152.5,145.5C 154.276,147.447 156.276,147.78 158.5,146.5C 156.573,144.898 154.406,143.565 152,142.5C 151.387,140.505 151.887,138.838 153.5,137.5 Z"/></g>
<g><path style="opacity:1" fill="#6c6d70" d="M 173.5,137.5 C 176.448,137.223 179.281,137.556 182,138.5C 182.779,140.807 182.279,142.807 180.5,144.5C 181.624,145.914 182.624,147.414 183.5,149C 182.5,149.667 181.5,149.667 180.5,149C 177.694,143.066 175.694,143.232 174.5,149.5C 173.509,145.555 173.176,141.555 173.5,137.5 Z"/></g>
<g><path style="opacity:1" fill="#6a6b6f" d="M 195.5,137.5 C 198.898,137.18 202.232,137.513 205.5,138.5C 204.311,139.429 202.978,139.762 201.5,139.5C 200.833,152.833 200.167,152.833 199.5,139.5C 197.517,139.843 196.183,139.176 195.5,137.5 Z"/></g>
<g><path style="opacity:1" fill="#7d7e80" d="M 206.5,137.5 C 207.5,137.5 208.5,137.5 209.5,137.5C 209.5,141.5 209.5,145.5 209.5,149.5C 208.5,149.5 207.5,149.5 206.5,149.5C 206.5,145.5 206.5,141.5 206.5,137.5 Z"/></g>
<g><path style="opacity:1" fill="#f6f6f6" d="M 214.5,139.5 C 220.488,139.664 221.821,142.164 218.5,147C 216.888,147.72 215.388,147.554 214,146.5C 213.444,144.115 213.61,141.782 214.5,139.5 Z"/></g>
<g><path style="opacity:1" fill="#e6e6e6" d="M 48.5,139.5 C 50.6648,139.116 52.3315,139.783 53.5,141.5C 52.3315,143.217 50.6648,143.884 48.5,143.5C 48.5,142.167 48.5,140.833 48.5,139.5 Z"/></g>
<g><path style="opacity:1" fill="#e5e5e6" d="M 59.5,139.5 C 61.6648,139.116 63.3315,139.783 64.5,141.5C 63.3315,143.217 61.6648,143.884 59.5,143.5C 59.5,142.167 59.5,140.833 59.5,139.5 Z"/></g>
<g><path style="opacity:1" fill="#f5f5f5" d="M 96.5,139.5 C 98.1667,139.5 99.8333,139.5 101.5,139.5C 101.5,140.5 101.5,141.5 101.5,142.5C 99.8333,142.5 98.1667,142.5 96.5,142.5C 96.5,141.5 96.5,140.5 96.5,139.5 Z"/></g>
<g><path style="opacity:1" fill="#f5f5f5" d="M 175.5,139.5 C 177.167,139.5 178.833,139.5 180.5,139.5C 180.5,140.5 180.5,141.5 180.5,142.5C 178.833,142.5 177.167,142.5 175.5,142.5C 175.5,141.5 175.5,140.5 175.5,139.5 Z"/></g>
<g><path style="opacity:1" fill="#6e6f72" d="M 25.5,137.5 C 28.0444,137.104 30.2111,137.771 32,139.5C 32.6877,140.332 32.521,140.998 31.5,141.5C 29.7244,139.553 27.7244,139.22 25.5,140.5C 27.1133,142.088 29.1133,143.088 31.5,143.5C 32.7596,145.353 32.7596,147.186 31.5,149C 28.9009,149.769 26.4009,149.602 24,148.5C 23.2506,147.365 23.4173,146.365 24.5,145.5C 26.2637,147.479 28.2637,147.812 30.5,146.5C 28.4344,145.094 26.2677,143.76 24,142.5C 23.3872,140.505 23.8872,138.838 25.5,137.5 Z"/></g>
<g><path style="opacity:1" fill="#717275" d="M 224.5,137.5 C 227.552,138.88 229.718,141.214 231,144.5C 231.186,142.1 231.686,139.766 232.5,137.5C 233.833,141.5 233.833,145.5 232.5,149.5C 230.196,147.569 228.362,145.236 227,142.5C 226.814,144.9 226.314,147.234 225.5,149.5C 224.509,145.555 224.176,141.555 224.5,137.5 Z"/></g>
<g><path style="opacity:1" fill="#c4c4c5" d="M 190.5,140.5 C 191.339,141.641 192.006,142.974 192.5,144.5C 191.675,145.386 190.675,145.719 189.5,145.5C 189.366,143.708 189.699,142.042 190.5,140.5 Z"/></g>
<g><path style="opacity:1" fill="#6e6f72" d="M 111.5,137.5 C 114.448,137.223 117.281,137.556 120,138.5C 120.779,140.807 120.279,142.807 118.5,144.5C 119.624,145.914 120.624,147.414 121.5,149C 120.5,149.667 119.5,149.667 118.5,149C 115.694,143.066 113.694,143.232 112.5,149.5C 111.509,145.555 111.176,141.555 111.5,137.5 Z"/></g>
<g><path style="opacity:1" fill="#f4f4f5" d="M 113.5,139.5 C 115.167,139.5 116.833,139.5 118.5,139.5C 118.5,140.5 118.5,141.5 118.5,142.5C 116.833,142.5 115.167,142.5 113.5,142.5C 113.5,141.5 113.5,140.5 113.5,139.5 Z"/></g>
<g><path style="opacity:1" fill="#b6b7b8" d="M 53.5,144.5 C 52.4324,145.434 51.099,145.768 49.5,145.5C 49.7678,147.099 49.4345,148.432 48.5,149.5C 48.5,147.833 48.5,146.167 48.5,144.5C 50.1667,144.5 51.8333,144.5 53.5,144.5 Z"/></g>
<g><path style="opacity:1" fill="#b6b7b8" d="M 64.5,144.5 C 63.4324,145.434 62.099,145.768 60.5,145.5C 60.7678,147.099 60.4345,148.432 59.5,149.5C 59.5,147.833 59.5,146.167 59.5,144.5C 61.1667,144.5 62.8333,144.5 64.5,144.5 Z"/></g>
<g><path style="opacity:1" fill="#97989a" d="M 70.5,137.5 C 71.4794,140.625 71.8128,143.958 71.5,147.5C 73.604,147.201 75.604,147.534 77.5,148.5C 77.3764,149.107 77.0431,149.44 76.5,149.5C 74.7354,148.539 72.7354,148.205 70.5,148.5C 70.5,144.833 70.5,141.167 70.5,137.5 Z"/></g>
</svg>
