<?xml version="1.0" standalone="no"?>
<!DOCTYPE svg PUBLIC "-//W3C//DTD SVG 20010904//EN"
 "http://www.w3.org/TR/2001/REC-SVG-20010904/DTD/svg10.dtd">
<svg version="1.0" xmlns="http://www.w3.org/2000/svg"
 width="225.000000pt" height="225.000000pt" viewBox="0 0 225.000000 225.000000"
 preserveAspectRatio="xMidYMid meet">

<g transform="translate(0.000000,225.000000) scale(0.100000,-0.100000)"
fill="#000000" stroke="none">
<path d="M466 2168 c-247 -47 -425 -296 -389 -545 6 -41 13 -77 16 -80 3 -3
18 -1 34 5 20 6 27 15 24 28 -11 59 -5 203 12 251 54 154 200 266 368 280 264
22 490 -219 448 -479 -22 -137 -93 -240 -217 -314 -2 -1 4 -16 13 -33 l16 -31
42 29 c96 66 174 175 203 286 18 67 17 177 -1 250 -64 245 -316 402 -569 353z"/>
<path d="M1270 1980 c0 -110 -2 -200 -5 -200 -3 0 -32 14 -65 30 -33 17 -62
30 -65 30 -2 0 -6 -161 -7 -357 l-3 -358 -287 -5 -288 -5 -26 -27 c-21 -21
-28 -39 -32 -82 l-4 -56 -113 0 -112 0 -97 -155 -96 -155 0 -160 0 -160 73 0
c71 0 72 -1 87 -32 23 -48 63 -73 119 -73 56 0 94 22 123 71 l20 34 293 0 293
0 21 -36 c14 -23 37 -42 67 -56 76 -33 143 -12 189 60 l20 31 103 1 102 0 0
35 c0 24 -5 35 -14 35 -13 0 -15 50 -18 335 l-3 335 -28 27 c-27 28 -30 28
-175 33 l-147 5 -3 303 c-1 198 1 302 8 302 5 0 102 -46 215 -102 l205 -103 0
-553 0 -553 33 3 32 3 3 653 c1 358 4 652 7 652 3 0 97 -46 210 -102 l205
-103 0 -692 0 -693 -1020 0 -1020 0 0 -35 0 -35 1055 0 1055 0 0 750 0 749
-35 17 -35 16 0 289 0 289 -140 0 -140 0 0 -215 c0 -118 -3 -215 -7 -215 -5 0
-52 22 -105 50 l-98 49 0 -120 c0 -69 -4 -119 -10 -119 -5 0 -21 5 -35 12
l-25 11 0 274 0 273 -140 0 -140 0 0 -200z m210 95 l0 -35 -75 0 -75 0 0 35 0
35 75 0 75 0 0 -35z m560 0 l0 -35 -70 0 -70 0 0 35 0 35 70 0 70 0 0 -35z
m-560 -250 c0 -109 -3 -145 -12 -145 -7 0 -40 15 -73 33 l-60 32 -3 113 -3
112 76 0 75 0 0 -145z m560 -20 c0 -137 -2 -163 -14 -159 -8 3 -38 18 -68 33
l-53 28 -3 131 -3 132 71 0 70 0 0 -165z m-576 -761 c14 -13 16 -58 16 -335
l0 -319 -53 0 c-51 0 -53 1 -66 35 -17 47 -63 78 -125 83 -62 5 -110 -23 -141
-81 l-20 -37 -257 0 -258 0 0 319 c0 277 2 322 16 335 14 14 68 16 444 16 376
0 430 -2 444 -16z m-974 -269 l0 -105 -160 0 -160 0 41 66 c22 36 51 83 65
105 l24 39 95 0 95 0 0 -105z m0 -282 l0 -108 -18 34 c-49 92 -188 92 -240 1
-14 -25 -23 -30 -54 -30 l-38 0 0 105 0 105 175 0 175 0 0 -107z m795 -78 c33
-33 32 -70 -4 -106 -35 -34 -68 -37 -105 -8 -19 15 -26 29 -26 57 0 75 83 110
135 57z m-885 -15 c26 -26 25 -68 -2 -97 -28 -30 -63 -29 -93 2 -31 30 -32 62
-3 92 27 29 71 30 98 3z"/>
<path d="M670 720 l0 -260 35 0 35 0 0 260 0 260 -35 0 -35 0 0 -260z"/>
<path d="M880 720 l0 -260 35 0 35 0 0 260 0 260 -35 0 -35 0 0 -260z"/>
<path d="M1090 770 l0 -210 35 0 35 0 0 210 0 210 -35 0 -35 0 0 -210z"/>
<path d="M1300 770 l0 -210 35 0 35 0 0 210 0 210 -35 0 -35 0 0 -210z"/>
<path d="M485 2001 c-10 -61 -28 -70 -82 -41 l-44 23 -46 -46 -46 -46 23 -44
c29 -54 20 -72 -41 -82 l-39 -7 0 -69 0 -69 46 -11 c25 -7 48 -18 51 -26 3 -8
-4 -33 -17 -55 l-23 -40 49 -49 49 -49 38 25 c48 33 72 22 82 -35 l7 -41 71 3
71 3 9 41 c10 52 31 59 83 28 l39 -24 47 47 48 47 -25 42 c-14 23 -22 49 -19
58 3 8 25 19 47 23 l42 9 3 71 3 71 -41 7 c-57 10 -68 34 -35 82 l25 38 -49
49 -49 49 -40 -23 c-22 -13 -47 -20 -55 -17 -8 3 -19 26 -26 51 l-11 46 -69 0
-69 0 -7 -39z m101 -65 c5 -29 13 -37 55 -56 48 -20 51 -20 79 -3 41 24 57 7
34 -33 -16 -28 -16 -33 1 -77 15 -41 23 -48 57 -58 46 -12 45 -28 -1 -44 -22
-7 -40 -23 -52 -45 -23 -44 -23 -64 -3 -96 24 -36 5 -52 -35 -28 -29 17 -32
17 -77 -2 -38 -15 -50 -26 -59 -53 -16 -48 -32 -49 -44 -3 -10 34 -17 42 -58
57 -44 17 -49 17 -77 1 -40 -23 -57 -7 -33 33 16 28 16 32 -2 78 -16 41 -24
49 -55 57 -46 10 -45 36 2 48 27 7 37 18 53 55 19 45 19 46 0 78 -26 44 -10
60 34 34 32 -19 33 -19 78 0 35 15 48 27 53 48 9 38 13 43 29 43 8 0 17 -15
21 -34z"/>
<path d="M502 1811 c-77 -36 -103 -139 -51 -205 83 -105 249 -52 249 79 0 105
-102 170 -198 126z m91 -62 c29 -16 37 -28 37 -63 0 -39 -26 -66 -64 -66 -37
0 -49 7 -65 37 -17 33 -14 51 14 78 27 28 45 31 78 14z"/>
<path d="M1307 1473 c-4 -3 -7 -66 -7 -140 l0 -133 105 0 105 0 0 140 0 140
-98 0 c-54 0 -102 -3 -105 -7z m133 -138 l0 -75 -35 0 -35 0 0 75 0 75 35 0
35 0 0 -75z"/>
<path d="M1797 1473 c-4 -3 -7 -66 -7 -140 l0 -133 105 0 105 0 0 140 0 140
-98 0 c-54 0 -102 -3 -105 -7z m138 -138 l0 -70 -35 0 -35 0 -3 73 -3 73 38
-3 38 -3 0 -70z"/>
<path d="M171 1441 l-24 -19 32 -41 c18 -22 35 -41 39 -41 3 0 16 10 28 21
l23 22 -32 38 c-18 21 -34 39 -37 39 -3 0 -16 -9 -29 -19z"/>
<path d="M352 1285 c-7 -15 -10 -30 -7 -35 6 -9 96 -42 102 -37 1 2 5 17 9 33
5 27 2 31 -33 43 -21 8 -43 16 -49 18 -6 2 -16 -8 -22 -22z"/>
<path d="M630 1272 c-62 -7 -70 -11 -70 -42 0 -29 2 -30 43 -30 58 0 73 11 61
47 -7 22 -14 27 -34 25z"/>
<path d="M1790 950 l0 -140 105 0 105 0 0 140 0 140 -105 0 -105 0 0 -140z
m150 0 l0 -70 -40 0 -40 0 0 70 0 70 40 0 40 0 0 -70z"/>
<path d="M1792 563 l3 -138 103 -3 102 -3 0 141 0 140 -105 0 -106 0 3 -137z
m146 0 l-3 -68 -37 -3 -38 -3 0 70 0 71 40 0 41 0 -3 -67z"/>
</g>
</svg>
